<?xml version="1.0" encoding="utf-8"?>
<!-- Generator: Adobe Illustrator 25.2.1, SVG Export Plug-In . SVG Version: 6.00 Build 0)  -->
<svg version="1.1" id="Layer_1" xmlns="http://www.w3.org/2000/svg" xmlns:xlink="http://www.w3.org/1999/xlink" x="0px" y="0px"
	 viewBox="0 0 183.8 72.7" style="enable-background:new 0 0 183.8 72.7;" xml:space="preserve">
<style type="text/css">
	.st0{fill:#FFBA00;}
	.st1{fill:#D61D17;}
	.st2{fill:#93989C;}
	.st3{fill:#0082CD;}
	.st4{fill:#4ABEC8;}
</style>
<g>
	<g>
		<path class="st0" d="M135.7,58.3c0.6,0,1.1-0.5,1.1-1.1c0-0.6-0.5-1.1-1.1-1.1s-1.1,0.5-1.1,1.1C134.6,57.8,135.1,58.3,135.7,58.3
			z"/>
		<g>
			<path class="st1" d="M103.4,63.6c-0.5,0.4-1.3,1.2-1.8,1.2c-0.5,0-0.7-0.2-0.7-0.5c0-0.1,0-0.3,0.1-0.4l1.6-7.3l-2,0.3l-0.6,2.8
				c-0.2-0.2-0.6-0.3-0.9-0.3c-2.7,0-3.6,2.8-3.6,5.1c0,0.8,0.4,1.7,1.7,1.7c0.8,0,1.4-0.6,1.9-1.1c0.2,0.7,0.8,1,1.6,1
				c1.1,0,2.6-1.8,3.2-2.4H103.4z M99.1,63.8c0,0.2-0.1,0.3-0.1,0.4c-0.3,0.4-0.6,0.7-0.9,0.7c-0.3,0-0.8-0.1-0.8-1
				c0-1.8,0.8-4,1.8-4c0.2,0,0.4,0.1,0.7,0.2L99.1,63.8z"/>
			<path class="st1" d="M94.3,63.2c-0.5,1-1.6,1.8-2.3,1.8c-0.5,0-1.1-0.3-1.1-1.2c0-0.2,0-0.4,0-0.6c1.3-0.2,3.1-1.1,3.1-2.8
				c0-1-0.6-1.4-1.7-1.4c-2.5,0-3.2,3-3.2,4.8c0,1.2,0.7,2.2,2,2.2c1.8,0,3.1-1.4,3.8-2.8H94.3z M92.7,59.8c0.4,0,0.5,0.5,0.5,0.8
				c0,1-0.9,2-2.1,2.1C91.3,61.3,92,59.8,92.7,59.8z"/>
			<path class="st1" d="M88.8,58c0-1.1-0.9-2.2-3.1-2.2c-2.3,0-4.8,1.7-4.8,3.5c0,1,0.5,1.3,1.5,1.3c0-0.1-0.2-0.2-0.2-0.9
				c0-2.1,1.5-3.3,3.7-3.3c1.1,0,1.5,0.7,1.5,1.4c0,1.1-0.8,2.4-1.9,2.4h-0.1l0.7-3.2l-2,0.3L82.2,66h2l1.1-5.1
				c0.2,0,0.3-0.1,0.4-0.1c0.6,0,0.8,0.4,0.8,0.9c0,1-0.7,2.7-0.7,3.6c0,0.4,0.2,0.9,1.1,0.9c0.3,0,0.8-0.1,1.3-0.2
				c-0.3-0.1-0.5-0.5-0.5-0.9c0-0.8,0.7-2.3,0.7-3.4c0-0.6-0.2-1.2-0.9-1.4C88.3,59.8,88.8,58.8,88.8,58z"/>
		</g>
		<g>
			<path class="st2" d="M117.2,56l-3,7.8V56c-0.3-0.1-0.6-0.1-0.9-0.1c-2.1,0-4.4,1.8-4.4,3.5c0,1,0.5,1.3,1.5,1.3
				c0-0.1-0.2-0.2-0.2-0.9c0-1.6,0.8-2.6,2.2-3.1l-2.7,8.2h-5.1l-0.3,1.2h5h0.2h0.9l1.8-5.8V66h1.9l2.6-6.4l-1.4,6.4h2l2.1-10H117.2
				z"/>
			<path class="st2" d="M170.5,64.3c0-0.1,0-0.3,0.1-0.5l1.6-7.3l-2,0.3l-1.5,7.1c0,0.1-0.1,0.3-0.1,0.4c-0.3,0.3-0.7,0.5-1,0.5
				c-0.5,0-0.7-0.2-0.7-0.5c0-0.1,0-0.3,0.1-0.4l1-4.6h-2l-0.1,0.4c-0.2-0.2-0.6-0.3-0.9-0.3c-2.7,0-3.5,2.8-3.6,5.1
				c-0.3,0.3-0.7,0.5-0.9,0.5c-0.5,0-0.7-0.2-0.7-0.5c0-0.1,0-0.3,0.1-0.4l1-4.6h-2l-1,4.6c-0.1,0.3-0.1,0.5-0.1,0.7
				c0,1,0.7,1.5,1.7,1.5c0.6,0,1.3-0.6,2-1.1c0.1,0.6,0.6,1.2,1.6,1.2c0.8,0,1.4-0.6,1.9-1.1c0.2,0.7,0.8,1,1.7,1
				c0.6,0,1.3-0.6,2-1.2c0.1,0.7,0.5,1.2,1.4,1.2c0.5,0,1-0.1,1.4-1.3c-0.1,0-0.3,0-0.4,0C170.6,64.8,170.5,64.6,170.5,64.3z
				 M165,63.8c0,0.2-0.1,0.3-0.1,0.4c-0.3,0.4-0.6,0.7-0.9,0.7c-0.3,0-0.8-0.1-0.8-1c0-1.9,0.8-4,1.8-4c0.2,0,0.4,0.1,0.7,0.2
				L165,63.8z"/>
			<path class="st2" d="M156.9,59.2c-0.6,0-1.1,0.3-1.6,0.7l0.1-0.7h-2l-0.9,4h-0.3c-0.5,1-1.6,1.8-2.3,1.8c-0.5,0-1.1-0.3-1.1-1.2
				c0-0.2,0-0.4,0-0.6c1.3-0.2,3.1-1.1,3.1-2.8c0-1-0.6-1.4-1.7-1.4c-2.5,0-3.2,3-3.2,4.8c0,0.1,0,0.1,0,0.2
				c-0.4,0.4-0.9,0.8-1.3,0.8c-0.5,0-0.7-0.2-0.7-0.5c0-0.1,0-0.2,0.9-4.5h0.8l0.1-0.5h-0.8c0.3-1.2,0.5-2.1,0.5-2.1l-2,0.3
				l-0.4,1.9h-0.4l-0.1,0.5h0.4c-0.2,0.8-0.5,2.4-0.8,3.6l-0.2-0.3c-0.2,0.2-0.5,0.5-0.9,0.9c0-0.1,0-0.2,0-0.3
				c0-1.6-0.9-2.3-0.9-4.5v-0.2l-2,0.4c-0.2,1-0.5,2.2-1,3.1c-0.5,0-0.9,0.6-1,1.5c-0.4,0.4-0.9,0.8-1.3,0.8c-0.5,0-0.7-0.2-0.7-0.5
				c0-0.1,0-0.3,0.1-0.4l1-4.6h-2l-0.9,4.1l0-0.1c-0.4,1-1.2,1.6-2.1,2.1l1.3-6h-2l-0.1,0.7c-0.2-0.4-0.6-0.6-1.1-0.6
				c-2.6,0-3.4,3.1-3.4,5c0,0,0,0.1,0,0.2c-0.3,0.2-0.6,0.4-0.9,0.4c-0.5,0-0.7-0.2-0.7-0.5c0-0.1,0-0.3,0.1-0.4l1-4.6h-2l-0.1,0.4
				c-0.2-0.2-0.6-0.3-0.9-0.3c-2.7,0-3.6,2.8-3.6,5.1c0,0.8,0.4,1.7,1.7,1.7c0.8,0,1.4-0.6,1.9-1.1c0.2,0.7,0.8,1,1.7,1
				c0.6,0,1.3-0.5,1.9-1.1c0.2,0.6,0.6,1.2,1.6,1.2c0.6,0,1.2-0.3,1.6-0.7l-0.1,0.6c-1.2,0.4-2.2,0.9-2.2,2c0,0.9,0.7,1.3,1.5,1.3
				c0.9,0,2-0.4,2.4-2.3l0.2-1.1c0.9-0.3,1.7-0.7,2.1-1.4c0,0.9,0.7,1.4,1.7,1.4c0.7,0,1.6-0.8,2.3-1.5c0.1,1.1,0.9,1.5,2.3,1.5
				c1.3,0,2-0.5,2.4-1.3c0.5-0.4,0.9-0.8,1.3-1.1c-0.1,0.4-0.1,0.7-0.1,0.9c0,1,0.6,1.5,1.7,1.5c0.7,0,1.6-0.8,2.3-1.5
				c0.2,0.9,0.9,1.5,1.9,1.5c1.4,0,2.5-0.9,3.3-2l-0.4,2h2l1.1-5.3c0.3-0.3,0.5-0.4,0.9-0.4c0.4,0,0,0.9,0.8,0.9c0.7,0,1-0.6,1-1.1
				C157.9,59.6,157.5,59.2,156.9,59.2z M150.8,59.8c0.4,0,0.5,0.5,0.5,0.8c0,1-0.9,2-2.1,2.1C149.4,61.3,150,59.8,150.8,59.8z
				 M122.7,63.8c0,0.2-0.1,0.3-0.1,0.4c-0.3,0.4-0.6,0.7-0.9,0.7c-0.3,0-0.8-0.1-0.8-1c0-1.9,0.8-4,1.8-4c0.2,0,0.4,0.1,0.7,0.2
				L122.7,63.8z M129,67.1c-0.2,0.8-0.5,1.2-0.8,1.2c-0.3,0-0.5-0.3-0.5-0.4c0-0.5,0.6-0.9,1.3-1.2L129,67.1z M129.6,64.3
				c-0.3,0.3-0.5,0.5-0.8,0.5c-0.6,0-1-0.2-1-0.9c0-1.2,0.5-4,1.8-4c0.2,0,0.6,0.2,0.8,0.6L129.6,64.3z M139.1,65.2
				c-0.7,0-1.2-0.4-1.2-1.2c0.2,0.1,0.3,0.1,0.5,0.1c0.5,0,0.9-0.4,0.9-0.9c0-0.4-0.1-0.7-0.4-0.8c0.3-0.7,0.5-1.6,0.7-2.2
				c0,1.7,0.6,2.4,0.6,3.3C140.2,64.6,139.6,65.2,139.1,65.2z"/>
		</g>
		<path class="st3" d="M160.2,58.3c0.6,0,1.1-0.5,1.1-1.1c0-0.6-0.5-1.1-1.1-1.1c-0.6,0-1.1,0.5-1.1,1.1
			C159.1,57.8,159.6,58.3,160.2,58.3z"/>
	</g>
	<g>
		<path class="st4" d="M23.9,43.8L28,24.2c-2.8-1.2-4.9-1.7-7.2-1.9c-4,8.8-7,19.1-7,24.7c0,1.7,0.4,2.5,0.8,3
			c-2.9,0-7.2-0.1-7.2-5.7c0-4.9,3.2-13.7,7.9-22c-3.3,0.2-5.6,1-6.3,2.8c0.3,0,0.7,0.9,0.7,1.7c0,1.3-1.3,2.1-3,2.1
			c-1.8,0-3.3-1-3.3-3.1c0-3.7,4.6-6.6,11-6.6c0.8,0,1.7,0.1,2.8,0.2c5.5-8.6,12.5-15.9,18.8-15.9c1.2,0,3,0.2,4.3,0.8l-8.5,39.7
			H23.9z M31.7,7.1c-3.2,1.7-6.7,6.8-9.7,12.8c2.2,0.4,4.5,1,6.6,1.9L31.7,7.1z"/>
		<path class="st4" d="M50.7,14.8l-0.9,4c1.6-1.3,3.6-2.3,6.3-2.3c3.7,0,6.6,2.1,6.6,8.5c0,7.3-2.8,19.1-13.3,19.1
			c-2.7,0-4-0.9-4.6-1.9l-2.8,13.2l-8.2,1.9l9-42.5H50.7z M55.4,24.9c0-4.2-1.7-4.5-2.7-4.5c-1.2,0-2.7,0.9-3.7,2.6l-3.2,15.1
			c0.2,0.6,0.8,1.2,2.1,1.2C53.5,39.4,55.4,29.9,55.4,24.9z"/>
		<path class="st4" d="M75.6,16.8l-0.7,3.3c1.9-1.6,3.9-3.3,6.5-3.3c2.4,0,3.7,2,3.7,4c0,1.9-1.2,3.9-3.9,3.9c-3,0-1.5-3.6-3.1-3.6
			s-2.6,0.8-3.9,2.1l-4.3,20.5h-7.8l5.7-27H75.6z"/>
		<path class="st4" d="M95.6,39.6c4.3,0,6.9-2.4,9.6-5.5h1.8c-3.1,5-7.7,10-14.9,10c-5.1,0-8.4-2.5-8.4-8.6
			c0-6.2,3.5-19.2,14.6-19.2c4.8,0,5.9,2.5,5.9,5.2c0,6.2-5.9,11-12.4,11.4c-0.1,0.8-0.1,1.5-0.1,2.2C91.7,38.7,93,39.6,95.6,39.6z
			 M98.7,19.1c-2.8,0-5.4,5.8-6.5,11.1c4.2-0.3,7.8-4.4,7.8-8.9C100.1,20,99.8,19.1,98.7,19.1z"/>
		<path class="st4" d="M118.8,21.5c-1.9,0-3.4,2.3-4.2,5l-3.7,17.3h-7.8l5.7-27h7.8l-0.6,2.8c2.3-2.6,4.6-3,6.3-3c3.5,0,6,1.8,6,6.1
			c0,4.4-2.6,10.9-2.6,13.9c0,1.4,0.5,2.3,2.2,2.3c2.4,0,3.3-1.9,4.5-4.8h2.3c-3,8.9-7.2,10-10,10c-4.7,0-6.4-3-6.4-6.1
			c0-3.7,2.4-10.3,2.4-13.8C120.7,22.4,120.1,21.5,118.8,21.5z"/>
		<path class="st4" d="M160.6,6l-6.2,29.2c-0.2,0.7-0.2,1.2-0.2,1.7c0,1.5,0.7,2,2.2,2c2.1,0,3.6-2.1,4.4-4.8h2.3
			c-3.1,8.8-7.9,9.7-10.9,9.7s-4.9-1.6-5.3-4.6c-1.6,2.5-4.2,5-8,5c-3.7,0-7.2-2.3-7.2-8.7c0-7.3,4.5-18.9,13.9-18.9
			c3.1,0,4.4,1.2,4.4,2.8v0.2L152.6,7L160.6,6z M146.8,34.1l2.6-12.4c-0.1-0.6-0.6-1.9-2.2-1.9c-4.6,0-7.6,9.7-7.6,14.8
			c0,4.2,1.7,4.2,2.7,4.2c1.5,0,3.7-1.5,4.4-4.5V34.1z"/>
		<path class="st4" d="M171.4,39c2.1,0,4.6-1.3,6.4-2.9c-1.1,6.2-5,8-9.3,8c-5,0-8.4-2.5-8.4-8.6c0-6.2,3.5-19.2,14.6-19.2
			c4.8,0,5.9,2.5,5.9,5.2c0,6.3-5.9,11-12.4,11.4c-0.1,0.5-0.1,1.1-0.1,1.6C168,37.9,169.5,39,171.4,39z M175,19.1
			c-2.7,0-5.4,6-6.5,11.1c4.2-0.2,7.9-4.4,7.9-8.9C176.4,20,176.1,19.1,175,19.1z"/>
	</g>
</g>
</svg>