<?xml version="1.0" encoding="utf-8"?>
<!-- Generator: Adobe Illustrator 25.2.1, SVG Export Plug-In . SVG Version: 6.00 Build 0)  -->
<svg version="1.1" id="Layer_1" xmlns="http://www.w3.org/2000/svg" xmlns:xlink="http://www.w3.org/1999/xlink" x="0px" y="0px"
	 viewBox="0 0 473.7 56.7" style="enable-background:new 0 0 473.7 56.7;" xml:space="preserve">
<style type="text/css">
	.st0{fill:#FFBA00;}
	.st1{fill:#D61D17;}
	.st2{fill:#93989C;}
	.st3{fill:#0082CD;}
	.st4{fill:#5F6469;}
	.st5{fill:#547DBC;}
	.st6{fill:#34A551;}
	.st7{fill:#F6B916;}
	.st8{fill:#E74435;}
	.st9{fill:#747475;}
	.st10{fill:#FFFFFF;}
	.st11{fill:#00703C;}
	.st12{fill:#231F20;}
</style>
<g>
	<g>
		<path class="st0" d="M89.9,21.3c1,0,1.8-0.8,1.8-1.8c0-1-0.8-1.8-1.8-1.8c-1,0-1.8,0.8-1.8,1.8C88.1,20.5,88.9,21.3,89.9,21.3z"/>
		<g>
			<path class="st1" d="M37,29.9c-0.9,0.7-2.1,2-3,2c-0.9,0-1.1-0.3-1.1-0.8c0-0.2,0.1-0.5,0.1-0.7l2.5-12.1l-3.3,0.4l-1,4.6
				c-0.4-0.3-1-0.6-1.5-0.6c-4.5,0-5.9,4.6-5.9,8.4c0,1.3,0.6,2.8,2.8,2.8c1.4,0,2.4-0.9,3-1.8c0.3,1.2,1.3,1.7,2.7,1.7
				c1.7,0,4.3-3,5.3-4H37z M29.8,30.4c-0.1,0.3-0.1,0.5-0.1,0.7c-0.4,0.6-0.9,1.1-1.4,1.1c-0.6,0-1.3-0.2-1.3-1.6c0-3,1.3-6.6,3-6.6
				c0.3,0,0.7,0.1,1.1,0.4L29.8,30.4z"/>
			<path class="st1" d="M22,29.4c-0.8,1.7-2.7,3-3.8,3c-0.9,0-1.8-0.4-1.8-1.9c0-0.3,0-0.6,0.1-1c2.1-0.3,5.1-1.8,5.1-4.6
				c0-1.6-1-2.3-2.9-2.3c-4.1,0-5.3,5-5.3,7.8c0,1.9,1.2,3.6,3.3,3.6c2.9,0,5-2.3,6.3-4.6H22z M19.4,23.8c0.7,0,0.8,0.8,0.8,1.3
				c0,1.6-1.5,3.4-3.5,3.4C17.1,26.3,18.1,23.8,19.4,23.8z"/>
			<path class="st1" d="M12.9,20.8c0-1.8-1.5-3.6-5.1-3.6C4.1,17.2,0,20,0,23c0,1.6,0.8,2.2,2.4,2.2c0-0.2-0.3-0.4-0.3-1.5
				c0-3.4,2.4-5.4,6-5.4c1.7,0,2.5,1.1,2.5,2.3c0,1.7-1.3,3.9-3.2,3.9H7.2l1.1-5.2L5,19.7L2,33.9h3.2L7,25.5
				c0.3-0.1,0.5-0.1,0.7-0.1c1,0,1.3,0.6,1.3,1.5c0,1.7-1.2,4.4-1.2,5.9c0,0.7,0.3,1.5,1.7,1.5c0.5,0,1.3-0.1,2.2-0.4
				c-0.5-0.2-0.9-0.8-0.9-1.5c0-1.4,1.1-3.8,1.1-5.7c0-1.1-0.4-1.9-1.5-2.2C12,23.7,12.9,22.1,12.9,20.8z"/>
		</g>
		<g>
			<path class="st2" d="M59.6,17.5l-4.9,12.9V17.5c-0.5-0.2-1-0.2-1.5-0.2c-3.5,0-7.3,3-7.3,5.7c0,1.6,0.8,2.2,2.4,2.2
				c0-0.2-0.3-0.4-0.3-1.5c0-2.6,1.4-4.3,3.6-5.1L47.2,32h-8.4l-0.4,1.9h8.3h0.3h1.5l3-9.5v9.5h3.1l4.2-10.6l-2.2,10.6h3.2l3.5-16.5
				H59.6z"/>
			<path class="st2" d="M147.1,31.1c0-0.2,0-0.5,0.1-0.8l2.6-12.1l-3.3,0.4L144,30.4c-0.1,0.2-0.1,0.5-0.1,0.7
				c-0.6,0.5-1.2,0.9-1.7,0.9c-0.9,0-1.1-0.4-1.1-0.8c0-0.2,0-0.4,0.1-0.7l1.6-7.6h-3.2l-0.1,0.6c-0.4-0.3-1-0.6-1.5-0.6
				c-4.4,0-5.8,4.5-5.9,8.4c-0.5,0.4-1.1,0.8-1.5,0.8c-0.9,0-1.1-0.4-1.1-0.8c0-0.2,0-0.4,0.1-0.7l1.6-7.6H128l-1.6,7.6
				c-0.1,0.4-0.1,0.8-0.1,1.1c0,1.7,1.1,2.4,2.8,2.4c1,0,2.2-0.9,3.2-1.9c0.2,1.1,1,2,2.7,2c1.4,0,2.4-0.9,3-1.8
				c0.3,1.2,1.3,1.7,2.7,1.7c1,0,2.2-0.9,3.3-1.9c0.2,1.1,0.9,1.9,2.2,1.9c0.8,0,1.7-0.1,2.3-2.1c-0.2,0.1-0.4,0.1-0.6,0.1
				C147.3,32,147.1,31.6,147.1,31.1z M138,30.4c-0.1,0.3-0.1,0.5-0.1,0.7c-0.4,0.6-0.9,1.1-1.4,1.1c-0.6,0-1.3-0.2-1.3-1.6
				c0-3,1.3-6.6,3-6.6c0.3,0,0.7,0.1,1.1,0.4L138,30.4z"/>
			<path class="st2" d="M124.8,22.8c-0.9,0-1.8,0.5-2.6,1.1l0.2-1.1h-3.2l-1.4,6.6h-0.5c-0.8,1.7-2.7,3-3.8,3
				c-0.9,0-1.8-0.4-1.8-1.9c0-0.3,0-0.6,0.1-1c2.1-0.3,5.1-1.8,5.1-4.6c0-1.6-1-2.3-2.9-2.3c-4.1,0-5.3,5-5.3,7.8c0,0.1,0,0.2,0,0.3
				c-0.7,0.6-1.5,1.3-2.1,1.3c-0.9,0-1.1-0.3-1.1-0.8c0-0.1,0-0.3,1.5-7.4h1.3l0.2-0.9h-1.3c0.4-2,0.8-3.5,0.8-3.5l-3.3,0.4
				l-0.7,3.1h-0.7l-0.2,0.9h0.7c-0.3,1.3-0.9,4-1.3,5.9l-0.4-0.5c-0.3,0.3-0.8,0.9-1.5,1.5c0-0.2,0-0.3,0-0.5c0-2.6-1.5-3.7-1.5-7.4
				v-0.3L95.9,23c-0.4,1.7-0.9,3.7-1.7,5.1c-0.8,0.1-1.6,0.9-1.7,2.4c-0.7,0.6-1.5,1.3-2.2,1.3c-0.9,0-1.1-0.4-1.1-0.8
				c0-0.2,0-0.4,0.1-0.7l1.6-7.6h-3.2l-1.4,6.7l0-0.2c-0.7,1.7-2,2.7-3.4,3.4l2.1-9.9h-3.2l-0.2,1.1c-0.3-0.6-1-1.1-1.8-1.1
				c-4.3,0-5.5,5.1-5.5,8.2c0,0.1,0,0.2,0,0.2c-0.5,0.4-1,0.7-1.4,0.7c-0.9,0-1.1-0.4-1.1-0.8c0-0.2,0-0.4,0.1-0.7l1.6-7.6h-3.2
				L70,23.4c-0.4-0.3-1-0.6-1.5-0.6c-4.5,0-5.9,4.6-5.9,8.4c0,1.3,0.6,2.8,2.8,2.8c1.4,0,2.4-0.9,3-1.8c0.3,1.2,1.3,1.7,2.7,1.7
				c0.9,0,2.1-0.9,3.1-1.8c0.3,1,1,2,2.6,2c1,0,1.9-0.5,2.6-1.1l-0.2,1c-2,0.7-3.6,1.5-3.6,3.3c0,1.5,1.1,2.2,2.5,2.2
				c1.5,0,3.4-0.6,4-3.8l0.4-1.8c1.5-0.5,2.8-1.2,3.4-2.3c0.1,1.6,1.1,2.3,2.8,2.3c1.1,0,2.6-1.3,3.8-2.5c0.2,1.8,1.4,2.5,3.8,2.5
				c2.1,0,3.4-0.8,3.9-2.1c0.8-0.7,1.5-1.3,2.1-1.8c-0.1,0.6-0.2,1.2-0.2,1.4c0,1.7,1.1,2.4,2.8,2.4c1.2,0,2.7-1.3,3.8-2.5
				c0.4,1.4,1.4,2.5,3.2,2.5c2.3,0,4.2-1.5,5.5-3.3l-0.7,3.3h3.2l1.9-8.8c0.5-0.5,0.9-0.7,1.5-0.7c0.7,0,0,1.5,1.3,1.5
				c1.1,0,1.7-1,1.7-1.7C126.4,23.4,125.8,22.8,124.8,22.8z M114.7,23.8c0.7,0,0.8,0.8,0.8,1.3c0,1.6-1.5,3.4-3.5,3.4
				C112.4,26.3,113.5,23.8,114.7,23.8z M68.5,30.4c-0.1,0.3-0.1,0.5-0.1,0.7c-0.4,0.6-0.9,1.1-1.4,1.1c-0.6,0-1.3-0.2-1.3-1.6
				c0-3,1.3-6.6,3-6.6c0.3,0,0.7,0.1,1.1,0.4L68.5,30.4z M79,35.8c-0.3,1.3-0.8,2-1.3,2c-0.5,0-0.8-0.4-0.8-0.7
				c0-0.9,0.9-1.4,2.2-1.9L79,35.8z M79.9,31.2C79.5,31.6,79,32,78.6,32c-1,0-1.6-0.3-1.6-1.4c0-1.9,0.8-6.5,3-6.5
				c0.4,0,0.9,0.3,1.3,1L79.9,31.2z M95.6,32.6c-1.2,0-1.9-0.6-1.9-1.9c0.3,0.1,0.5,0.2,0.8,0.2c0.8,0,1.5-0.6,1.5-1.4
				c0-0.7-0.2-1.1-0.7-1.3c0.5-1.1,0.8-2.5,1.2-3.6c0,2.8,1.1,4,1.1,5.4C97.4,31.7,96.3,32.6,95.6,32.6z"/>
		</g>
		<path class="st3" d="M130.1,21.3c1,0,1.8-0.8,1.8-1.8c0-1-0.8-1.8-1.8-1.8c-1,0-1.8,0.8-1.8,1.8C128.4,20.5,129.2,21.3,130.1,21.3
			z"/>
	</g>
	<g>
		<g>
			<path class="st4" d="M235.4,21.2c0,0.9-0.3,1.7-0.8,2.2c-0.6,0.7-1.4,1-2.4,1c-1,0-1.8-0.3-2.4-1c-0.7-0.7-1-1.5-1-2.5
				c0-1,0.3-1.8,1-2.5c0.7-0.7,1.5-1,2.4-1c0.5,0,0.9,0.1,1.4,0.3c0.4,0.2,0.8,0.4,1.1,0.7l-0.6,0.6c-0.2-0.2-0.5-0.4-0.8-0.6
				c-0.3-0.1-0.7-0.2-1-0.2c-0.7,0-1.3,0.2-1.8,0.7c-0.5,0.5-0.7,1.1-0.7,1.9c0,0.8,0.2,1.4,0.7,1.9c0.5,0.5,1.1,0.7,1.8,0.7
				c0.7,0,1.2-0.2,1.6-0.6c0.4-0.4,0.7-0.9,0.8-1.5h-2.4v-0.8h3.2C235.4,20.9,235.4,21,235.4,21.2z"/>
			<path class="st4" d="M236,22c0-0.7,0.2-1.3,0.7-1.7c0.4-0.5,1-0.7,1.7-0.7s1.2,0.2,1.7,0.7c0.4,0.5,0.7,1,0.7,1.7
				c0,0.7-0.2,1.3-0.7,1.7c-0.4,0.5-1,0.7-1.7,0.7s-1.2-0.2-1.7-0.7C236.2,23.2,236,22.7,236,22z M236.8,22c0,0.5,0.1,0.9,0.4,1.2
				c0.3,0.3,0.6,0.5,1.1,0.5s0.8-0.2,1.1-0.5c0.3-0.3,0.4-0.7,0.4-1.2c0-0.5-0.1-0.9-0.4-1.2c-0.3-0.3-0.6-0.5-1.1-0.5
				c-0.4,0-0.8,0.2-1.1,0.5C236.9,21.1,236.8,21.5,236.8,22z"/>
			<path class="st4" d="M241.1,22c0-0.7,0.2-1.3,0.7-1.7c0.4-0.5,1-0.7,1.7-0.7s1.2,0.2,1.7,0.7c0.4,0.5,0.7,1,0.7,1.7
				c0,0.7-0.2,1.3-0.7,1.7c-0.4,0.5-1,0.7-1.7,0.7s-1.2-0.2-1.7-0.7C241.3,23.2,241.1,22.7,241.1,22z M242,22c0,0.5,0.1,0.9,0.4,1.2
				c0.3,0.3,0.6,0.5,1.1,0.5s0.8-0.2,1.1-0.5c0.3-0.3,0.4-0.7,0.4-1.2c0-0.5-0.1-0.9-0.4-1.2c-0.3-0.3-0.6-0.5-1.1-0.5
				s-0.8,0.2-1.1,0.5C242.1,21.1,242,21.5,242,22z"/>
			<path class="st4" d="M248.5,26.4c-0.3,0-0.5,0-0.7-0.1c-0.2-0.1-0.4-0.2-0.6-0.3c-0.2-0.1-0.3-0.3-0.5-0.4
				c-0.1-0.2-0.2-0.3-0.3-0.5l0.8-0.3c0.1,0.3,0.3,0.5,0.5,0.6c0.2,0.2,0.5,0.2,0.8,0.2c0.5,0,0.8-0.1,1.1-0.4
				c0.3-0.3,0.4-0.7,0.4-1.1v-0.4h0c-0.2,0.2-0.4,0.4-0.7,0.6c-0.3,0.1-0.6,0.2-0.9,0.2c-0.6,0-1.1-0.2-1.5-0.7
				c-0.4-0.5-0.6-1-0.6-1.7c0-0.7,0.2-1.2,0.6-1.7c0.4-0.5,0.9-0.7,1.5-0.7c0.3,0,0.6,0.1,0.9,0.2c0.3,0.1,0.5,0.3,0.7,0.6h0v-0.6
				h0.8V24c0,0.7-0.2,1.3-0.6,1.7C249.8,26.2,249.2,26.4,248.5,26.4z M248.6,23.6c0.4,0,0.8-0.2,1-0.5c0.3-0.3,0.4-0.7,0.4-1.2
				c0-0.5-0.1-0.9-0.4-1.2c-0.3-0.3-0.6-0.5-1-0.5c-0.4,0-0.7,0.2-1,0.5c-0.3,0.3-0.4,0.7-0.4,1.2c0,0.5,0.1,0.9,0.4,1.2
				C247.8,23.4,248.2,23.6,248.6,23.6z"/>
			<path class="st4" d="M252.7,17.6v6.6h-0.8v-6.6H252.7z"/>
			<path class="st4" d="M255.7,24.4c-0.7,0-1.2-0.2-1.6-0.7c-0.4-0.5-0.6-1-0.6-1.7c0-0.7,0.2-1.3,0.6-1.7c0.4-0.5,1-0.7,1.6-0.7
				c0.7,0,1.2,0.2,1.6,0.7c0.4,0.4,0.6,1,0.6,1.8l0,0.1h-3.6c0,0.4,0.2,0.8,0.4,1.1c0.3,0.3,0.6,0.4,1,0.4c0.5,0,1-0.3,1.3-0.8
				l0.8,0.4c-0.2,0.4-0.5,0.7-0.8,0.9C256.6,24.3,256.2,24.4,255.7,24.4z M254.4,21.4h2.6c0-0.3-0.2-0.6-0.4-0.8
				c-0.2-0.2-0.5-0.3-0.9-0.3c-0.3,0-0.6,0.1-0.8,0.3C254.6,20.8,254.4,21.1,254.4,21.4z"/>
			<path class="st4" d="M262.6,17.5c0.3,0,0.6,0.1,0.8,0.2l-0.2,0.7c-0.1-0.1-0.3-0.1-0.5-0.1c-0.2,0-0.4,0.1-0.5,0.2
				c-0.1,0.1-0.2,0.3-0.2,0.6v0.6h1.2v0.8h-1.2v3.7H261v-3.7h-0.8v-0.8h0.8V19c0-0.4,0.1-0.8,0.4-1.1
				C261.7,17.7,262.1,17.5,262.6,17.5z"/>
			<path class="st4" d="M263.3,22c0-0.7,0.2-1.3,0.7-1.7c0.4-0.5,1-0.7,1.7-0.7c0.7,0,1.2,0.2,1.7,0.7c0.4,0.5,0.7,1,0.7,1.7
				c0,0.7-0.2,1.3-0.7,1.7c-0.4,0.5-1,0.7-1.7,0.7c-0.7,0-1.2-0.2-1.7-0.7C263.6,23.2,263.3,22.7,263.3,22z M264.2,22
				c0,0.5,0.1,0.9,0.4,1.2c0.3,0.3,0.6,0.5,1.1,0.5c0.4,0,0.8-0.2,1.1-0.5c0.3-0.3,0.4-0.7,0.4-1.2c0-0.5-0.1-0.9-0.4-1.2
				c-0.3-0.3-0.6-0.5-1.1-0.5c-0.4,0-0.8,0.2-1.1,0.5C264.3,21.1,264.2,21.5,264.2,22z"/>
			<path class="st4" d="M269.5,24.2h-0.8v-4.5h0.8v0.7h0c0.1-0.2,0.3-0.4,0.5-0.6c0.3-0.2,0.5-0.3,0.8-0.3c0.2,0,0.5,0,0.6,0.1
				l-0.3,0.8c-0.1,0-0.3-0.1-0.5-0.1c-0.3,0-0.6,0.1-0.8,0.4c-0.2,0.3-0.4,0.6-0.4,0.9V24.2z"/>
			<path class="st4" d="M278.1,17.6v0.8h-3v2.1h2.7v0.8H275v2.1h3v0.8h-3.9v-6.6H278.1z"/>
			<path class="st4" d="M280.8,24.4c-0.6,0-1.1-0.2-1.5-0.7c-0.4-0.5-0.6-1-0.6-1.7c0-0.7,0.2-1.2,0.6-1.7c0.4-0.5,0.9-0.7,1.5-0.7
				c0.3,0,0.6,0.1,0.9,0.2c0.3,0.1,0.5,0.3,0.6,0.6h0l0-0.6v-2.1h0.8v6.6h-0.8v-0.6h0c-0.1,0.2-0.4,0.4-0.6,0.6
				C281.4,24.3,281.1,24.4,280.8,24.4z M280.9,23.6c0.4,0,0.8-0.2,1-0.5c0.3-0.3,0.4-0.7,0.4-1.2c0-0.5-0.1-0.9-0.4-1.2
				c-0.3-0.3-0.6-0.5-1-0.5c-0.4,0-0.7,0.2-1,0.5c-0.3,0.3-0.4,0.7-0.4,1.2c0,0.5,0.1,0.9,0.4,1.2C280.1,23.4,280.5,23.6,280.9,23.6
				z"/>
			<path class="st4" d="M288.1,24.2h-0.8v-0.6h0c-0.1,0.2-0.3,0.4-0.6,0.6c-0.3,0.1-0.5,0.2-0.8,0.2c-0.6,0-1-0.2-1.3-0.5
				c-0.3-0.3-0.4-0.8-0.4-1.4v-2.8h0.8v2.8c0,0.7,0.4,1.1,1.1,1.1c0.3,0,0.6-0.1,0.8-0.4c0.2-0.3,0.3-0.6,0.3-1v-2.5h0.8V24.2z"/>
			<path class="st4" d="M291.2,24.4c-0.7,0-1.2-0.2-1.7-0.7c-0.4-0.5-0.7-1-0.7-1.7c0-0.7,0.2-1.3,0.7-1.7c0.4-0.5,1-0.7,1.7-0.7
				c0.5,0,0.9,0.1,1.2,0.3c0.3,0.2,0.6,0.5,0.8,1l-0.8,0.3c-0.2-0.6-0.7-0.8-1.3-0.8c-0.4,0-0.7,0.2-1,0.5c-0.3,0.3-0.4,0.7-0.4,1.2
				c0,0.5,0.1,0.8,0.4,1.2c0.3,0.3,0.6,0.5,1,0.5c0.6,0,1.1-0.3,1.3-0.8l0.8,0.3c-0.2,0.4-0.4,0.7-0.8,1
				C292.1,24.3,291.7,24.4,291.2,24.4z"/>
			<path class="st4" d="M295.6,19.6c0.6,0,1.1,0.2,1.5,0.5c0.4,0.3,0.5,0.8,0.5,1.4v2.8h-0.8v-0.6h0c-0.4,0.5-0.8,0.8-1.4,0.8
				c-0.5,0-0.9-0.1-1.2-0.4c-0.3-0.3-0.5-0.7-0.5-1.1c0-0.5,0.2-0.8,0.5-1.1c0.4-0.3,0.8-0.4,1.4-0.4c0.5,0,0.9,0.1,1.2,0.3v-0.2
				c0-0.3-0.1-0.5-0.4-0.8s-0.5-0.3-0.8-0.3c-0.5,0-0.8,0.2-1.1,0.6l-0.7-0.5C294.2,19.9,294.8,19.6,295.6,19.6z M294.5,22.8
				c0,0.2,0.1,0.4,0.3,0.6c0.2,0.1,0.4,0.2,0.7,0.2c0.4,0,0.7-0.1,1-0.4c0.3-0.3,0.4-0.6,0.4-0.9c-0.3-0.2-0.6-0.3-1.1-0.3
				c-0.3,0-0.6,0.1-0.9,0.2C294.6,22.4,294.5,22.6,294.5,22.8z"/>
			<path class="st4" d="M300.3,24.3c-0.4,0-0.7-0.1-0.9-0.3c-0.2-0.2-0.4-0.5-0.4-1v-2.5h-0.8v-0.8h0.8v-1.4h0.8v1.4h1.1v0.8h-1.1
				v2.3c0,0.3,0.1,0.5,0.2,0.6c0.1,0.1,0.2,0.2,0.4,0.2c0.1,0,0.1,0,0.2,0c0.1,0,0.1,0,0.2-0.1l0.3,0.8
				C300.9,24.3,300.6,24.3,300.3,24.3z"/>
			<path class="st4" d="M302.9,18.1c0,0.2-0.1,0.3-0.2,0.4c-0.1,0.1-0.3,0.2-0.4,0.2c-0.2,0-0.3-0.1-0.4-0.2
				c-0.1-0.1-0.2-0.3-0.2-0.4s0.1-0.3,0.2-0.4s0.3-0.2,0.4-0.2c0.2,0,0.3,0.1,0.4,0.2S302.9,18,302.9,18.1z M302.7,19.7v4.5h-0.8
				v-4.5H302.7z"/>
			<path class="st4" d="M303.5,22c0-0.7,0.2-1.3,0.7-1.7c0.4-0.5,1-0.7,1.7-0.7s1.2,0.2,1.7,0.7c0.4,0.5,0.7,1,0.7,1.7
				c0,0.7-0.2,1.3-0.7,1.7c-0.4,0.5-1,0.7-1.7,0.7s-1.2-0.2-1.7-0.7C303.8,23.2,303.5,22.7,303.5,22z M304.4,22
				c0,0.5,0.1,0.9,0.4,1.2c0.3,0.3,0.6,0.5,1.1,0.5c0.4,0,0.8-0.2,1.1-0.5c0.3-0.3,0.4-0.7,0.4-1.2c0-0.5-0.1-0.9-0.4-1.2
				c-0.3-0.3-0.6-0.5-1.1-0.5s-0.8,0.2-1.1,0.5C304.5,21.1,304.4,21.5,304.4,22z"/>
			<path class="st4" d="M308.9,19.7h0.8v0.6h0c0.1-0.2,0.3-0.4,0.6-0.6c0.3-0.1,0.5-0.2,0.8-0.2c0.6,0,1,0.2,1.3,0.5
				c0.3,0.3,0.4,0.8,0.4,1.4v2.8H312v-2.8c0-0.7-0.4-1.1-1.1-1.1c-0.3,0-0.6,0.1-0.8,0.4c-0.2,0.3-0.3,0.6-0.3,1v2.5h-0.8V19.7z"/>
		</g>
		<g>
			<path class="st4" d="M228.8,38.1v-8.7h3c0.4,0,0.8,0.1,1.1,0.2c0.3,0.1,0.6,0.3,0.9,0.5c0.3,0.2,0.5,0.5,0.6,0.8s0.2,0.7,0.2,1.1
				c0,0.4-0.1,0.8-0.2,1.1c-0.2,0.3-0.4,0.6-0.6,0.8c-0.3,0.2-0.6,0.4-0.9,0.5c-0.3,0.1-0.7,0.2-1.1,0.2h-1.6v3.4H228.8z
				 M231.8,33.4c0.2,0,0.4,0,0.6-0.1c0.2-0.1,0.3-0.2,0.5-0.3c0.1-0.1,0.2-0.3,0.3-0.4c0.1-0.2,0.1-0.3,0.1-0.5c0-0.2,0-0.3-0.1-0.5
				c-0.1-0.2-0.2-0.3-0.3-0.4c-0.1-0.1-0.3-0.2-0.5-0.3c-0.2-0.1-0.4-0.1-0.6-0.1h-1.7v2.7H231.8z"/>
			<path class="st4" d="M239.3,37.3L239.3,37.3c-0.3,0.2-0.5,0.5-0.8,0.6c-0.3,0.2-0.6,0.3-1.1,0.3c-0.3,0-0.6-0.1-0.9-0.2
				c-0.3-0.1-0.5-0.2-0.7-0.4c-0.2-0.2-0.4-0.4-0.5-0.6c-0.1-0.2-0.2-0.5-0.2-0.8c0-0.3,0.1-0.6,0.2-0.9c0.1-0.3,0.3-0.5,0.5-0.6
				c0.2-0.2,0.5-0.3,0.8-0.4c0.3-0.1,0.6-0.1,1-0.1c0.4,0,0.7,0,1,0.1c0.3,0.1,0.5,0.1,0.6,0.2v-0.2c0-0.2,0-0.3-0.1-0.5
				c-0.1-0.2-0.2-0.3-0.3-0.4c-0.1-0.1-0.3-0.2-0.5-0.3c-0.2-0.1-0.4-0.1-0.5-0.1c-0.3,0-0.6,0.1-0.8,0.2c-0.2,0.1-0.5,0.3-0.6,0.6
				l-1.1-0.7c0.3-0.4,0.6-0.7,1.1-0.9c0.4-0.2,0.9-0.3,1.4-0.3c0.9,0,1.6,0.2,2.1,0.7c0.5,0.4,0.7,1.1,0.7,1.9v3.6h-1.3V37.3z
				 M239.3,35.6c-0.2-0.1-0.4-0.2-0.6-0.3c-0.2-0.1-0.5-0.1-0.8-0.1c-0.4,0-0.8,0.1-1,0.3c-0.3,0.2-0.4,0.4-0.4,0.7
				c0,0.1,0,0.3,0.1,0.4c0.1,0.1,0.1,0.2,0.3,0.3c0.1,0.1,0.2,0.1,0.4,0.2c0.1,0,0.3,0.1,0.4,0.1c0.2,0,0.4,0,0.6-0.1
				c0.2-0.1,0.4-0.2,0.5-0.3c0.1-0.1,0.3-0.3,0.4-0.5C239.3,36,239.3,35.8,239.3,35.6z"/>
			<path class="st4" d="M243.2,33.1L243.2,33.1c0.2-0.3,0.5-0.6,0.8-0.8c0.3-0.2,0.7-0.3,1.1-0.3c0.1,0,0.2,0,0.3,0
				c0.1,0,0.1,0,0.2,0v1.4c-0.1,0-0.2-0.1-0.3-0.1c-0.1,0-0.2,0-0.3,0c-0.5,0-0.9,0.2-1.2,0.5c-0.3,0.3-0.5,0.7-0.5,1.2v3.1h-1.4v-6
				h1.3V33.1z M247.4,33.3h-1v-1.2h1v-1.8h1.4v1.8h1.5v1.2h-1.5V36c0,0.2,0,0.3,0,0.4c0,0.1,0.1,0.2,0.1,0.3
				c0.1,0.2,0.3,0.2,0.5,0.2c0.1,0,0.2,0,0.3,0c0.1,0,0.2-0.1,0.2-0.1l0.4,1.2c-0.2,0.1-0.4,0.1-0.5,0.2c-0.2,0-0.4,0.1-0.6,0.1
				c-0.3,0-0.5,0-0.8-0.1c-0.2-0.1-0.4-0.2-0.6-0.4c-0.4-0.4-0.5-0.8-0.5-1.5V33.3z"/>
			<path class="st4" d="M252.6,32.9L252.6,32.9c0.3-0.3,0.5-0.5,0.8-0.7c0.3-0.2,0.7-0.3,1.1-0.3c0.8,0,1.3,0.2,1.7,0.7
				c0.4,0.5,0.6,1.1,0.6,1.8v3.7h-1.4v-3.5c0-0.5-0.1-0.9-0.4-1.1c-0.2-0.2-0.6-0.3-0.9-0.3c-0.2,0-0.4,0-0.6,0.1
				c-0.2,0.1-0.3,0.2-0.5,0.4c-0.1,0.2-0.2,0.4-0.3,0.6c-0.1,0.2-0.1,0.4-0.1,0.7v3.1h-1.4v-6h1.3V32.9z"/>
			<path class="st4" d="M263.6,36.6c-0.3,0.5-0.6,0.9-1.1,1.2c-0.5,0.3-1,0.5-1.7,0.5c-0.4,0-0.9-0.1-1.2-0.2
				c-0.4-0.2-0.7-0.4-1-0.7c-0.3-0.3-0.5-0.6-0.6-1s-0.2-0.8-0.2-1.3c0-0.4,0.1-0.8,0.2-1.2s0.4-0.7,0.6-1c0.3-0.3,0.6-0.5,1-0.7
				c0.4-0.2,0.8-0.3,1.2-0.3c0.5,0,0.9,0.1,1.2,0.2c0.4,0.2,0.7,0.4,0.9,0.6c0.3,0.3,0.4,0.6,0.6,1c0.1,0.4,0.2,0.8,0.2,1.3
				c0,0,0,0.1,0,0.1c0,0,0,0.1,0,0.1c0,0,0,0.1,0,0.1h-4.6c0,0.3,0.1,0.5,0.2,0.7c0.1,0.2,0.3,0.4,0.4,0.5s0.4,0.2,0.6,0.3
				c0.2,0.1,0.4,0.1,0.6,0.1c0.4,0,0.7-0.1,1-0.3c0.3-0.2,0.5-0.4,0.6-0.7L263.6,36.6z M262.3,34.3c0-0.1-0.1-0.3-0.1-0.4
				c-0.1-0.2-0.2-0.3-0.3-0.4c-0.1-0.1-0.3-0.2-0.5-0.3c-0.2-0.1-0.4-0.1-0.7-0.1c-0.4,0-0.7,0.1-1,0.3c-0.3,0.2-0.5,0.5-0.6,0.9
				H262.3z"/>
			<path class="st4" d="M264.7,32.1h1.3V33h0.1c0.1-0.2,0.2-0.3,0.3-0.4c0.1-0.1,0.3-0.2,0.4-0.3c0.2-0.1,0.3-0.2,0.5-0.2
				s0.3-0.1,0.5-0.1c0.2,0,0.4,0,0.5,0.1c0.1,0,0.3,0.1,0.4,0.2l-0.4,1.2c-0.1,0-0.2-0.1-0.3-0.1c-0.1,0-0.2,0-0.4,0
				c-0.2,0-0.4,0-0.6,0.1c-0.2,0.1-0.3,0.2-0.5,0.4c-0.1,0.2-0.2,0.3-0.3,0.6c-0.1,0.2-0.1,0.4-0.1,0.7v3.1h-1.4V32.1z"/>
		</g>
		<g>
			<path class="st5" d="M219.3,26.8h-9.9v4h5.7c-0.2,1.4-1,2.5-2.1,3.3l3.4,2.6c2-1.8,3.1-4.5,3.1-7.7
				C219.5,28.2,219.4,27.5,219.3,26.8z"/>
			<path class="st6" d="M209.4,35.1c-2.7,0-5-1.8-5.9-4.3l-3.5,2.7c1.7,3.4,5.3,5.8,9.4,5.8c2.8,0,5.2-0.9,6.9-2.5l-3.4-2.6
				C212,34.7,210.8,35.1,209.4,35.1z"/>
			<path class="st7" d="M203.2,28.8c0-0.7,0.1-1.4,0.3-2l-3.5-2.7c-0.7,1.4-1.1,3-1.1,4.7s0.4,3.3,1.1,4.7l3.5-2.7
				C203.3,30.1,203.2,29.5,203.2,28.8z"/>
			<path class="st8" d="M209.4,22.5c1.5,0,2.9,0.5,4,1.6l3-3c-1.8-1.7-4.2-2.7-7-2.7c-4.1,0-7.6,2.4-9.4,5.8l3.5,2.7
				C204.4,24.3,206.7,22.5,209.4,22.5z"/>
		</g>
	</g>
	<path class="st9" d="M174.4,56.7c-0.2,0-0.3-0.2-0.3-0.3v-56c0-0.2,0.2-0.3,0.3-0.3s0.3,0.2,0.3,0.3v56
		C174.7,56.6,174.6,56.7,174.4,56.7z"/>
	<path class="st9" d="M337.4,56.7c-0.2,0-0.3-0.2-0.3-0.3v-56c0-0.2,0.2-0.3,0.3-0.3s0.3,0.2,0.3,0.3v56
		C337.8,56.6,337.6,56.7,337.4,56.7z"/>
	<g>
		<g>
			<path class="st10" d="M399.7,17.5c-1.1-1-2.7-1.5-4.9-1.5h-2.5c-0.4,0-0.8,0.1-1,0.2c-0.2,0.1-0.3,0.3-0.3,0.6V29
				c0,0.2,0.1,0.4,0.4,0.6c0.2,0.1,0.7,0.2,1.3,0.2h1.9c1.7,0,3.1-0.3,4.4-0.9c0.8-0.4,1.4-1,1.9-1.7c0.6-1,0.9-2.3,0.9-4.1
				C401.6,20.5,401,18.7,399.7,17.5z"/>
			<path class="st10" d="M362.5,12.8V33h55.3V12.8H362.5z M382.3,30.5h-18.2v-0.8h1.5c0.6,0,1-0.1,1.2-0.2c0.2-0.1,0.4-0.4,0.4-0.6
				V16.8c0-0.3-0.1-0.5-0.3-0.6c-0.2-0.1-0.5-0.2-1-0.2h-1.8v-0.8h17.5l0.4,5.2h-1c-0.4-1.6-1-2.8-1.9-3.4c-0.9-0.6-2-1-3.4-1h-4.3
				c-0.3,0-0.6,0.1-0.8,0.2c-0.2,0.1-0.3,0.3-0.3,0.6v5.5h1.9c1,0,1.8-0.3,2.5-0.8c0.6-0.5,1-1.3,1-2.3h1v7.1h-1c0-1.2-0.4-2-1-2.5
				c-0.6-0.5-1.5-0.8-2.6-0.8h-1.7v6.1c0,0.2,0.1,0.4,0.3,0.5c0.2,0.1,0.6,0.2,1.1,0.2h3.4c3.7,0,5.8-1.6,6.4-4.9h1.1L382.3,30.5z
				 M404.3,26.5c-0.5,0.8-1.2,1.6-2.2,2.2c-1,0.6-2.1,1.1-3.5,1.4c-1,0.2-2.4,0.4-4.2,0.4h-10.2v-0.8h2.1c0.5,0,0.9-0.1,1.1-0.2
				c0.2-0.1,0.3-0.3,0.3-0.5V16.7c0-0.2-0.1-0.4-0.3-0.5c-0.2-0.1-0.5-0.2-0.9-0.2h-2.2v-0.8h11.4c1.7,0,3.1,0.2,4.3,0.6
				c1.5,0.5,2.7,1.4,3.7,2.6c1,1.2,1.5,2.7,1.5,4.3C405.2,24.2,404.9,25.4,404.3,26.5z M412.7,29.5c0.2,0.2,0.7,0.2,1.3,0.2h2v0.8
				h-10.2v-0.8h1.9c0.7,0,1.1-0.1,1.3-0.2c0.2-0.1,0.3-0.4,0.3-0.9V17c0-0.4-0.1-0.7-0.3-0.8c-0.3-0.2-0.8-0.2-1.5-0.2h-1.7v-0.8
				H416V16h-1.7c-0.8,0-1.3,0.1-1.5,0.2c-0.2,0.1-0.3,0.4-0.3,0.8v11.6C412.4,29.1,412.5,29.4,412.7,29.5z"/>
			<g>
				<path class="st11" d="M362,12.3v21.2h111.7V12.3H362z M427,16.1c-0.4-0.1-0.9-0.2-1.7-0.2h-1.4l0.4-0.8l7-0.2l-6.9,13.3
					c-0.2,0.4-0.4,0.8-0.4,1c0,0.2,0.1,0.3,0.2,0.4c0.1,0.1,0.3,0.1,0.5,0.1c1,0,2.4-0.9,4.2-2.7l1.1,0.3c-2,2.2-4.1,3.4-6.2,3.4
					c-0.8,0-1.4-0.1-1.8-0.4c-0.5-0.3-0.7-0.7-0.7-1.2c0-0.4,0.2-0.9,0.5-1.6l5.6-10.7c0.1-0.1,0.1-0.2,0.1-0.3
					C427.4,16.3,427.3,16.2,427,16.1z M447.5,29.6c0.2,0.1,0.3,0.2,0.5,0.2c0.4,0,0.8-0.1,1.3-0.4c0.9-0.5,1.8-1.3,2.6-2.2l1.1,0.3
					c-2,2.3-4,3.4-6,3.4c-0.7,0-1.2-0.1-1.7-0.4c-0.4-0.3-0.7-0.6-0.7-1.1l0-0.4c-0.8,0.6-1.6,1.1-2.6,1.4c-1,0.3-2,0.5-2.9,0.5
					c-1.9,0-3.4-0.4-4.7-1.1c-1.3-0.8-1.9-1.7-1.9-2.9c0-1,0.5-2.1,1.5-3.1c1-1,2.3-1.8,3.9-2.4c1.6-0.6,3.1-0.9,4.6-0.9
					c1.2,0,2.3,0.2,3.2,0.6c0.9,0.4,1.6,0.9,1.9,1.5l1.1-1.8l2.9-0.2l-4.1,7.9c-0.1,0.2-0.2,0.4-0.2,0.6
					C447.3,29.3,447.4,29.5,447.5,29.6z M469.8,23c-0.4,0.2-0.9,0.4-1.4,0.4c-0.5,0-0.9-0.1-1.2-0.3c-0.3-0.2-0.5-0.4-0.5-0.7
					c0-0.1,0.1-0.2,0.2-0.4c0.1-0.1,0.1-0.2,0.1-0.3c0-0.1,0-0.2-0.1-0.2c-0.1,0-0.2-0.1-0.4-0.1c-0.3,0-0.7,0.1-1.2,0.3
					c-0.8,0.4-1.6,1.1-2.4,2.1c-1.5,1.8-2.5,3.3-3.1,4.4l-1.2,2.3l-3.1,0.1l3.4-6.7c0.4-0.7,0.5-1.2,0.5-1.5c0-0.3-0.2-0.6-0.6-0.7
					c-0.4-0.2-1-0.3-1.9-0.3H456l0.4-0.7l6.3-0.2l-1.8,4.2c1.1-1.4,2-2.4,2.6-2.9c0.6-0.5,1.3-0.8,2-1.1c0.7-0.2,1.4-0.3,2.1-0.3
					c0.8,0,1.5,0.1,2,0.4c0.5,0.3,0.8,0.7,0.8,1.1C470.4,22.4,470.2,22.7,469.8,23z M362.5,12.8h55.3V33h-55.3V12.8z"/>
				<path class="st11" d="M445.4,22c-0.8-0.4-1.7-0.7-2.7-0.7c-1,0-2,0.2-3,0.7c-1,0.4-1.9,1.2-2.7,2.2c-0.8,1-1.1,2.1-1.1,3.2
					c0,0.9,0.3,1.5,1,1.9c0.6,0.4,1.5,0.6,2.7,0.6c1.1,0,2-0.2,2.9-0.6c0.9-0.4,1.8-1.2,2.7-2.4c0.9-1.2,1.3-2.3,1.3-3.2
					C446.6,23,446.2,22.4,445.4,22z"/>
			</g>
			<path class="st11" d="M375.2,29.8h-3.4c-0.5,0-0.9-0.1-1.1-0.2c-0.2-0.1-0.3-0.3-0.3-0.5V23h1.7c1.1,0,2,0.3,2.6,0.8
				c0.6,0.5,1,1.3,1,2.5h1v-7.1h-1c0,1-0.4,1.8-1,2.3c-0.6,0.5-1.4,0.8-2.5,0.8h-1.9v-5.5c0-0.3,0.1-0.5,0.3-0.6
				c0.2-0.1,0.4-0.2,0.8-0.2h4.3c1.4,0,2.5,0.3,3.4,1c0.9,0.7,1.5,1.8,1.9,3.4h1l-0.4-5.2h-17.5V16h1.8c0.4,0,0.8,0.1,1,0.2
				c0.2,0.1,0.3,0.3,0.3,0.6v12.1c0,0.3-0.1,0.5-0.4,0.6c-0.2,0.1-0.7,0.2-1.2,0.2h-1.5v0.8h18.2l0.4-5.7h-1.1
				C381.1,28.1,378.9,29.8,375.2,29.8z"/>
			<path class="st11" d="M399.9,15.8c-1.2-0.4-2.6-0.6-4.3-0.6h-11.4V16h2.2c0.4,0,0.7,0.1,0.9,0.2c0.2,0.1,0.3,0.3,0.3,0.5V29
				c0,0.2-0.1,0.4-0.3,0.5c-0.2,0.1-0.6,0.2-1.1,0.2h-2.1v0.8h10.2c1.7,0,3.1-0.1,4.2-0.4c1.4-0.3,2.6-0.8,3.5-1.4
				c1-0.6,1.7-1.4,2.2-2.2c0.6-1.1,0.9-2.3,0.9-3.7c0-1.7-0.5-3.1-1.5-4.3C402.7,17.2,401.4,16.4,399.9,15.8z M400.7,27.2
				c-0.4,0.7-1.1,1.3-1.9,1.7c-1.3,0.6-2.7,0.9-4.4,0.9h-1.9c-0.6,0-1-0.1-1.3-0.2c-0.2-0.1-0.4-0.3-0.4-0.6V16.8
				c0-0.3,0.1-0.5,0.3-0.6c0.2-0.1,0.6-0.2,1-0.2h2.5c2.2,0,3.9,0.5,4.9,1.5c1.3,1.2,1.9,3.1,1.9,5.6
				C401.6,24.8,401.3,26.2,400.7,27.2z"/>
			<path class="st11" d="M412.7,16.2c0.2-0.1,0.7-0.2,1.5-0.2h1.7v-0.8h-10.2V16h1.7c0.7,0,1.3,0.1,1.5,0.2c0.2,0.1,0.3,0.4,0.3,0.8
				v11.6c0,0.5-0.1,0.8-0.3,0.9c-0.2,0.1-0.6,0.2-1.3,0.2h-1.9v0.8H416v-0.8h-2c-0.6,0-1.1-0.1-1.3-0.2c-0.2-0.1-0.3-0.4-0.3-0.9V17
				C412.4,16.6,412.5,16.3,412.7,16.2z"/>
			<path class="st10" d="M431.4,15l-7,0.2l-0.4,0.8h1.4c0.8,0,1.4,0.1,1.7,0.2c0.3,0.1,0.4,0.2,0.4,0.4c0,0.1,0,0.2-0.1,0.3
				l-5.6,10.7c-0.4,0.7-0.5,1.3-0.5,1.6c0,0.5,0.2,0.9,0.7,1.2c0.5,0.3,1.1,0.4,1.8,0.4c2.1,0,4.2-1.1,6.2-3.4l-1.1-0.3
				c-1.7,1.8-3.1,2.7-4.2,2.7c-0.2,0-0.4,0-0.5-0.1c-0.1-0.1-0.2-0.2-0.2-0.4c0-0.2,0.1-0.5,0.4-1L431.4,15z"/>
			<path class="st10" d="M445.4,30.4c0.4,0.3,1,0.4,1.7,0.4c2.1,0,4.1-1.1,6-3.4l-1.1-0.3c-0.8,0.9-1.7,1.7-2.6,2.2
				c-0.5,0.3-0.9,0.4-1.3,0.4c-0.2,0-0.4-0.1-0.5-0.2c-0.1-0.1-0.2-0.3-0.2-0.4c0-0.2,0.1-0.4,0.2-0.6l4.1-7.9l-2.9,0.2l-1.1,1.8
				c-0.3-0.6-1-1.2-1.9-1.5c-0.9-0.4-2-0.6-3.2-0.6c-1.5,0-3,0.3-4.6,0.9c-1.6,0.6-2.9,1.4-3.9,2.4c-1,1-1.5,2-1.5,3.1
				c0,1.2,0.6,2.1,1.9,2.9c1.3,0.7,2.9,1.1,4.7,1.1c1,0,1.9-0.2,2.9-0.5c1-0.3,1.9-0.8,2.6-1.4l0,0.4
				C444.7,29.7,444.9,30.1,445.4,30.4z M442.6,29.2c-0.9,0.4-1.9,0.6-2.9,0.6c-1.2,0-2.1-0.2-2.7-0.6c-0.6-0.4-1-1-1-1.9
				c0-1.1,0.4-2.1,1.1-3.2c0.8-1,1.7-1.8,2.7-2.2c1-0.4,2-0.7,3-0.7c1,0,1.9,0.2,2.7,0.7c0.8,0.4,1.1,1,1.1,1.7c0,0.9-0.4,2-1.3,3.2
				C444.4,28,443.5,28.8,442.6,29.2z"/>
			<path class="st10" d="M466.7,22.4c0,0.3,0.2,0.5,0.5,0.7c0.3,0.2,0.7,0.3,1.2,0.3c0.6,0,1.1-0.1,1.4-0.4c0.4-0.2,0.6-0.6,0.6-1
				c0-0.4-0.3-0.8-0.8-1.1c-0.5-0.3-1.2-0.4-2-0.4c-0.7,0-1.4,0.1-2.1,0.3c-0.7,0.2-1.4,0.6-2,1.1c-0.6,0.5-1.5,1.5-2.6,2.9l1.8-4.2
				l-6.3,0.2l-0.4,0.7h0.8c0.9,0,1.5,0.1,1.9,0.3c0.4,0.2,0.6,0.4,0.6,0.7c0,0.3-0.2,0.7-0.5,1.5l-3.4,6.7l3.1-0.1l1.2-2.3
				c0.6-1.1,1.6-2.6,3.1-4.4c0.8-1,1.6-1.7,2.4-2.1c0.4-0.2,0.8-0.3,1.2-0.3c0.2,0,0.3,0,0.4,0.1c0.1,0,0.1,0.1,0.1,0.2
				c0,0.1,0,0.2-0.1,0.3C466.7,22.2,466.7,22.3,466.7,22.4z"/>
		</g>
		<path class="st12" d="M467.1,40.8c0-0.5,0.1-0.9,0.4-1.3c0.3-0.3,0.6-0.5,1-0.5c0.3,0,0.5,0.1,0.7,0.2c0.2,0.1,0.4,0.3,0.5,0.6
			c0.1,0.3,0.2,0.6,0.2,0.9v0.1c0,0.5-0.1,0.9-0.4,1.3c-0.3,0.3-0.6,0.5-1,0.5c-0.4,0-0.7-0.2-1-0.5
			C467.3,41.8,467.1,41.4,467.1,40.8L467.1,40.8z M466.7,40.8c0,0.6,0.2,1.1,0.5,1.5c0.3,0.4,0.8,0.6,1.3,0.6c0.4,0,0.7-0.1,1-0.3
			c0.3-0.2,0.5-0.4,0.7-0.7c0.2-0.3,0.2-0.7,0.2-1.1v-0.1c0-0.6-0.2-1.1-0.5-1.5c-0.3-0.4-0.8-0.6-1.3-0.6c-0.4,0-0.7,0.1-1,0.3
			c-0.3,0.2-0.5,0.4-0.7,0.7C466.8,40,466.7,40.4,466.7,40.8L466.7,40.8z M466.1,38.7c-0.1,0-0.2,0-0.3,0c-0.5,0-0.9,0.2-1.2,0.7
			l0-0.7h-0.4v4.1h0.5V40c0.1-0.3,0.2-0.5,0.4-0.7c0.2-0.2,0.4-0.2,0.7-0.2c0.1,0,0.2,0,0.3,0L466.1,38.7z M461.8,37.7v1.1h-0.8v0.4
			h0.8v2.8c0,0.4,0.1,0.6,0.2,0.8c0.1,0.2,0.4,0.3,0.7,0.3c0.2,0,0.4,0,0.5-0.1l0-0.4c-0.2,0-0.3,0-0.4,0c-0.2,0-0.3-0.1-0.4-0.2
			c-0.1-0.1-0.1-0.3-0.1-0.5v-2.8h0.9v-0.4h-0.9v-1.1H461.8z M459.6,42.4c-0.2,0.1-0.5,0.2-0.8,0.2c-0.3,0-0.6-0.1-0.8-0.2
			c-0.2-0.1-0.3-0.4-0.3-0.6h-0.5c0,0.4,0.1,0.7,0.4,0.9c0.3,0.2,0.7,0.3,1.2,0.3c0.5,0,0.8-0.1,1.1-0.3c0.3-0.2,0.4-0.5,0.4-0.8
			c0-0.2,0-0.4-0.1-0.5c-0.1-0.1-0.2-0.3-0.4-0.4c-0.2-0.1-0.5-0.2-0.9-0.3c-0.4-0.1-0.7-0.2-0.8-0.3c-0.2-0.1-0.2-0.3-0.2-0.5
			c0-0.2,0.1-0.4,0.3-0.5c0.2-0.1,0.4-0.2,0.7-0.2c0.3,0,0.6,0.1,0.8,0.2c0.2,0.2,0.3,0.4,0.3,0.6h0.5c0-0.4-0.1-0.7-0.4-0.9
			c-0.3-0.2-0.6-0.3-1.1-0.3c-0.4,0-0.8,0.1-1,0.3s-0.4,0.5-0.4,0.8c0,0.2,0,0.4,0.1,0.5c0.1,0.1,0.2,0.3,0.5,0.4
			c0.2,0.1,0.5,0.2,0.9,0.3c0.4,0.1,0.6,0.2,0.8,0.3c0.2,0.1,0.3,0.3,0.3,0.5C459.9,42,459.8,42.2,459.6,42.4 M455.6,39.4
			c0.2,0.2,0.3,0.6,0.3,1v0h-2.5c0.1-0.4,0.2-0.8,0.4-1c0.2-0.3,0.5-0.4,0.9-0.4C455.1,39.1,455.4,39.2,455.6,39.4 M456.3,42.2
			L456,42c-0.2,0.2-0.3,0.3-0.5,0.4c-0.2,0.1-0.4,0.1-0.6,0.1c-0.4,0-0.7-0.2-1-0.5c-0.3-0.3-0.4-0.7-0.4-1.2v-0.1h2.9v-0.3
			c0-0.6-0.1-1.1-0.4-1.4c-0.3-0.3-0.7-0.5-1.2-0.5c-0.3,0-0.6,0.1-0.9,0.3c-0.3,0.2-0.5,0.4-0.6,0.7c-0.2,0.3-0.2,0.7-0.2,1.1v0.2
			c0,0.4,0.1,0.7,0.2,1s0.4,0.5,0.7,0.7c0.3,0.2,0.6,0.3,1,0.3C455.5,43,456,42.7,456.3,42.2 M449.4,42.3c-0.2-0.2-0.3-0.3-0.3-0.6
			c0-0.3,0.1-0.5,0.4-0.7c0.3-0.2,0.6-0.2,1.1-0.2h0.8v0.9c-0.1,0.2-0.3,0.4-0.5,0.6s-0.5,0.2-0.8,0.2
			C449.8,42.5,449.6,42.5,449.4,42.3 M452,42.9L452,42.9c-0.1-0.2-0.1-0.5-0.1-0.9v-2c0-0.4-0.1-0.7-0.4-1c-0.3-0.2-0.6-0.3-1.1-0.3
			c-0.4,0-0.8,0.1-1.1,0.4c-0.3,0.2-0.5,0.5-0.5,0.9l0.5,0c0-0.2,0.1-0.4,0.3-0.6c0.2-0.2,0.5-0.2,0.8-0.2c0.3,0,0.6,0.1,0.8,0.3
			c0.2,0.2,0.3,0.4,0.3,0.7v0.5h-0.8c-0.6,0-1.1,0.1-1.4,0.4c-0.3,0.2-0.5,0.6-0.5,1c0,0.3,0.1,0.6,0.4,0.8c0.2,0.2,0.6,0.3,1,0.3
			c0.3,0,0.5-0.1,0.8-0.2c0.2-0.1,0.5-0.3,0.6-0.5c0,0.3,0,0.4,0.1,0.6H452z M441.8,38.8v4.1h0.5V40c0.1-0.3,0.3-0.6,0.5-0.7
			c0.2-0.2,0.5-0.2,0.7-0.2c0.3,0,0.6,0.1,0.8,0.3c0.2,0.2,0.2,0.4,0.2,0.8v2.8h0.5v-2.7c0-0.3,0.2-0.6,0.4-0.8
			c0.2-0.2,0.5-0.3,0.8-0.3c0.4,0,0.6,0.1,0.8,0.3c0.2,0.2,0.2,0.5,0.2,0.8v2.7h0.5v-2.8c0-1-0.5-1.4-1.4-1.4
			c-0.3,0-0.6,0.1-0.8,0.2c-0.2,0.1-0.4,0.3-0.6,0.6c-0.2-0.5-0.6-0.8-1.2-0.8c-0.3,0-0.5,0.1-0.8,0.2c-0.2,0.1-0.4,0.3-0.6,0.6
			l0-0.7H441.8z M439.2,37h-0.5v5.9h0.5V37z M436.9,39.4c0.2,0.2,0.3,0.6,0.3,1v0h-2.5c0.1-0.4,0.2-0.8,0.4-1
			c0.2-0.3,0.5-0.4,0.9-0.4C436.4,39.1,436.6,39.2,436.9,39.4 M437.6,42.2l-0.3-0.2c-0.2,0.2-0.3,0.3-0.5,0.4
			c-0.2,0.1-0.4,0.1-0.6,0.1c-0.4,0-0.7-0.2-1-0.5c-0.3-0.3-0.4-0.7-0.4-1.2v-0.1h2.9v-0.3c0-0.6-0.1-1.1-0.4-1.4
			c-0.3-0.3-0.7-0.5-1.2-0.5c-0.3,0-0.6,0.1-0.9,0.3s-0.5,0.4-0.6,0.7c-0.2,0.3-0.2,0.7-0.2,1.1v0.2c0,0.4,0.1,0.7,0.2,1
			s0.4,0.5,0.7,0.7c0.3,0.2,0.6,0.3,1,0.3C436.7,43,437.2,42.7,437.6,42.2 M431.3,42.4c-0.2,0.1-0.5,0.2-0.8,0.2
			c-0.3,0-0.6-0.1-0.8-0.2c-0.2-0.1-0.3-0.4-0.3-0.6h-0.5c0,0.4,0.1,0.7,0.4,0.9c0.3,0.2,0.7,0.3,1.2,0.3c0.5,0,0.8-0.1,1.1-0.3
			c0.3-0.2,0.4-0.5,0.4-0.8c0-0.2,0-0.4-0.1-0.5c-0.1-0.1-0.2-0.3-0.4-0.4c-0.2-0.1-0.5-0.2-0.9-0.3c-0.4-0.1-0.7-0.2-0.8-0.3
			c-0.2-0.1-0.2-0.3-0.2-0.5c0-0.2,0.1-0.4,0.3-0.5c0.2-0.1,0.4-0.2,0.7-0.2c0.3,0,0.6,0.1,0.8,0.2c0.2,0.2,0.3,0.4,0.3,0.6h0.5
			c0-0.4-0.1-0.7-0.4-0.9c-0.3-0.2-0.6-0.3-1.1-0.3c-0.4,0-0.8,0.1-1,0.3c-0.3,0.2-0.4,0.5-0.4,0.8c0,0.2,0,0.4,0.1,0.5
			s0.2,0.3,0.5,0.4c0.2,0.1,0.5,0.2,0.9,0.3c0.4,0.1,0.6,0.2,0.8,0.3c0.2,0.1,0.3,0.3,0.3,0.5C431.6,42,431.5,42.2,431.3,42.4
			 M427.3,39.4c0.2,0.2,0.3,0.6,0.3,1v0h-2.5c0.1-0.4,0.2-0.8,0.4-1c0.2-0.3,0.5-0.4,0.9-0.4C426.8,39.1,427.1,39.2,427.3,39.4
			 M428,42.2l-0.3-0.2c-0.2,0.2-0.3,0.3-0.5,0.4c-0.2,0.1-0.4,0.1-0.6,0.1c-0.4,0-0.7-0.2-1-0.5c-0.3-0.3-0.4-0.7-0.4-1.2v-0.1h2.9
			v-0.3c0-0.6-0.1-1.1-0.4-1.4c-0.3-0.3-0.7-0.5-1.2-0.5c-0.3,0-0.6,0.1-0.9,0.3s-0.5,0.4-0.6,0.7c-0.2,0.3-0.2,0.7-0.2,1.1v0.2
			c0,0.4,0.1,0.7,0.2,1c0.2,0.3,0.4,0.5,0.7,0.7c0.3,0.2,0.6,0.3,1,0.3C427.2,43,427.7,42.7,428,42.2 M421.9,39.4
			c0.2,0.2,0.3,0.6,0.3,1v0h-2.5c0.1-0.4,0.2-0.8,0.4-1c0.2-0.3,0.5-0.4,0.9-0.4C421.4,39.1,421.7,39.2,421.9,39.4 M422.6,42.2
			l-0.3-0.2c-0.2,0.2-0.3,0.3-0.5,0.4c-0.2,0.1-0.4,0.1-0.6,0.1c-0.4,0-0.7-0.2-1-0.5c-0.3-0.3-0.4-0.7-0.4-1.2v-0.1h2.9v-0.3
			c0-0.6-0.1-1.1-0.4-1.4c-0.3-0.3-0.7-0.5-1.2-0.5c-0.3,0-0.6,0.1-0.9,0.3c-0.3,0.2-0.5,0.4-0.6,0.7c-0.2,0.3-0.2,0.7-0.2,1.1v0.2
			c0,0.4,0.1,0.7,0.2,1c0.2,0.3,0.4,0.5,0.7,0.7c0.3,0.2,0.6,0.3,1,0.3C421.8,43,422.2,42.7,422.6,42.2 M417.7,42.9h0.4v-4.1h-0.5v3
			c-0.2,0.5-0.6,0.8-1.3,0.8c-0.6,0-1-0.4-1-1.2v-2.6h-0.5v2.7c0,0.5,0.1,0.9,0.4,1.1s0.6,0.4,1,0.4c0.6,0,1-0.2,1.3-0.6L417.7,42.9
			z M411.2,39.5c0.2-0.3,0.5-0.5,0.9-0.5c0.3,0,0.5,0.1,0.7,0.2c0.2,0.1,0.4,0.3,0.5,0.6v2c-0.2,0.5-0.6,0.7-1.2,0.7
			c-0.4,0-0.7-0.2-0.9-0.5c-0.2-0.3-0.3-0.7-0.3-1.3C410.8,40.3,410.9,39.8,411.2,39.5 M410.4,40.8c0,0.6,0.1,1.2,0.4,1.5
			s0.7,0.6,1.2,0.6c0.5,0,1-0.2,1.3-0.6v2.1h0.5v-5.7h-0.4l0,0.6c-0.3-0.4-0.7-0.6-1.3-0.6c-0.5,0-0.9,0.2-1.2,0.6
			S410.4,40.1,410.4,40.8L410.4,40.8z M406.2,40.8c0-0.5,0.1-0.9,0.4-1.3c0.3-0.3,0.6-0.5,1-0.5c0.3,0,0.5,0.1,0.7,0.2
			c0.2,0.1,0.4,0.3,0.5,0.6c0.1,0.3,0.2,0.6,0.2,0.9v0.1c0,0.5-0.1,0.9-0.4,1.3c-0.3,0.3-0.6,0.5-1,0.5c-0.4,0-0.7-0.2-1-0.5
			C406.4,41.8,406.2,41.4,406.2,40.8L406.2,40.8z M405.8,40.8c0,0.6,0.2,1.1,0.5,1.5c0.3,0.4,0.8,0.6,1.3,0.6c0.4,0,0.7-0.1,1-0.3
			c0.3-0.2,0.5-0.4,0.7-0.7c0.2-0.3,0.2-0.7,0.2-1.1v-0.1c0-0.6-0.2-1.1-0.5-1.5c-0.3-0.4-0.8-0.6-1.3-0.6c-0.4,0-0.7,0.1-1,0.3
			c-0.3,0.2-0.5,0.4-0.7,0.7C405.9,40,405.8,40.4,405.8,40.8L405.8,40.8z M404.1,42.9v-3.8h1v-0.4h-1v-0.5c0-0.3,0.1-0.5,0.2-0.7
			c0.1-0.2,0.3-0.2,0.6-0.2c0.1,0,0.3,0,0.4,0l0-0.4c-0.1,0-0.3-0.1-0.5-0.1c-0.4,0-0.7,0.1-0.9,0.3c-0.2,0.2-0.3,0.6-0.3,1v0.5
			h-0.7v0.4h0.7v3.8H404.1z M398.8,38.8v4.1h0.5v-2.8c0.1-0.3,0.3-0.5,0.5-0.7c0.2-0.2,0.5-0.3,0.7-0.3c0.3,0,0.6,0.1,0.7,0.3
			c0.2,0.2,0.2,0.5,0.2,0.8v2.7h0.5v-2.7c0-0.5-0.1-0.9-0.3-1.1c-0.2-0.2-0.5-0.4-1-0.4c-0.3,0-0.5,0.1-0.8,0.2
			c-0.2,0.1-0.4,0.3-0.6,0.6l0-0.7H398.8z M397,39.4c0.2,0.2,0.3,0.6,0.3,1v0h-2.5c0.1-0.4,0.2-0.8,0.4-1c0.2-0.3,0.5-0.4,0.9-0.4
			C396.5,39.1,396.8,39.2,397,39.4 M397.7,42.2l-0.3-0.2c-0.2,0.2-0.3,0.3-0.5,0.4c-0.2,0.1-0.4,0.1-0.6,0.1c-0.4,0-0.7-0.2-1-0.5
			c-0.3-0.3-0.4-0.7-0.4-1.2v-0.1h2.9v-0.3c0-0.6-0.1-1.1-0.4-1.4c-0.3-0.3-0.7-0.5-1.2-0.5c-0.3,0-0.6,0.1-0.9,0.3
			c-0.3,0.2-0.5,0.4-0.6,0.7c-0.2,0.3-0.2,0.7-0.2,1.1v0.2c0,0.4,0.1,0.7,0.2,1s0.4,0.5,0.7,0.7c0.3,0.2,0.6,0.3,1,0.3
			C396.9,43,397.4,42.7,397.7,42.2 M389.1,40.8c0-0.5,0.1-0.9,0.4-1.3c0.3-0.3,0.6-0.5,1-0.5c0.3,0,0.5,0.1,0.7,0.2
			c0.2,0.1,0.4,0.3,0.5,0.6c0.1,0.3,0.2,0.6,0.2,0.9v0.1c0,0.5-0.1,0.9-0.4,1.3c-0.3,0.3-0.6,0.5-1,0.5c-0.4,0-0.7-0.2-1-0.5
			C389.2,41.8,389.1,41.4,389.1,40.8L389.1,40.8z M388.6,40.8c0,0.6,0.2,1.1,0.5,1.5c0.3,0.4,0.8,0.6,1.3,0.6c0.4,0,0.7-0.1,1-0.3
			c0.3-0.2,0.5-0.4,0.6-0.7c0.2-0.3,0.2-0.7,0.2-1.1v-0.1c0-0.6-0.2-1.1-0.5-1.5c-0.3-0.4-0.8-0.6-1.3-0.6c-0.4,0-0.7,0.1-1,0.3
			c-0.3,0.2-0.5,0.4-0.7,0.7C388.7,40,388.6,40.4,388.6,40.8L388.6,40.8z M388.1,38.7c-0.1,0-0.2,0-0.3,0c-0.5,0-0.9,0.2-1.2,0.7
			l0-0.7h-0.4v4.1h0.5V40c0.1-0.3,0.2-0.5,0.4-0.7c0.2-0.2,0.4-0.2,0.7-0.2c0.1,0,0.2,0,0.3,0L388.1,38.7z M383.8,37.7v1.1H383v0.4
			h0.8v2.8c0,0.4,0.1,0.6,0.2,0.8c0.1,0.2,0.4,0.3,0.7,0.3c0.2,0,0.4,0,0.5-0.1l0-0.4c-0.2,0-0.3,0-0.4,0c-0.2,0-0.3-0.1-0.4-0.2
			c-0.1-0.1-0.1-0.3-0.1-0.5v-2.8h0.9v-0.4h-0.9v-1.1H383.8z M381.6,42.4c-0.2,0.1-0.5,0.2-0.8,0.2c-0.3,0-0.6-0.1-0.8-0.2
			c-0.2-0.1-0.3-0.4-0.3-0.6h-0.5c0,0.4,0.1,0.7,0.4,0.9c0.3,0.2,0.7,0.3,1.2,0.3c0.5,0,0.8-0.1,1.1-0.3c0.3-0.2,0.4-0.5,0.4-0.8
			c0-0.2,0-0.4-0.1-0.5c-0.1-0.1-0.2-0.3-0.4-0.4c-0.2-0.1-0.5-0.2-0.9-0.3c-0.4-0.1-0.7-0.2-0.8-0.3c-0.2-0.1-0.2-0.3-0.2-0.5
			c0-0.2,0.1-0.4,0.3-0.5c0.2-0.1,0.4-0.2,0.7-0.2c0.3,0,0.6,0.1,0.8,0.2c0.2,0.2,0.3,0.4,0.3,0.6h0.5c0-0.4-0.1-0.7-0.4-0.9
			c-0.3-0.2-0.6-0.3-1.1-0.3c-0.4,0-0.8,0.1-1,0.3c-0.3,0.2-0.4,0.5-0.4,0.8c0,0.2,0,0.4,0.1,0.5s0.2,0.3,0.5,0.4
			c0.2,0.1,0.5,0.2,0.9,0.3c0.4,0.1,0.6,0.2,0.8,0.3c0.2,0.1,0.3,0.3,0.3,0.5C381.9,42,381.8,42.2,381.6,42.4 M377.6,39.4
			c0.2,0.2,0.3,0.6,0.3,1v0h-2.5c0.1-0.4,0.2-0.8,0.4-1c0.2-0.3,0.5-0.4,0.9-0.4C377.1,39.1,377.3,39.2,377.6,39.4 M378.3,42.2
			L378,42c-0.2,0.2-0.3,0.3-0.5,0.4c-0.2,0.1-0.4,0.1-0.6,0.1c-0.4,0-0.7-0.2-1-0.5c-0.3-0.3-0.4-0.7-0.4-1.2v-0.1h2.9v-0.3
			c0-0.6-0.1-1.1-0.4-1.4c-0.3-0.3-0.7-0.5-1.2-0.5c-0.3,0-0.6,0.1-0.9,0.3s-0.5,0.4-0.6,0.7c-0.2,0.3-0.2,0.7-0.2,1.1v0.2
			c0,0.4,0.1,0.7,0.2,1c0.2,0.3,0.4,0.5,0.7,0.7c0.3,0.2,0.6,0.3,1,0.3C377.4,43,377.9,42.7,378.3,42.2 M373.4,42.9h0.4v-4.1h-0.5v3
			c-0.2,0.5-0.6,0.8-1.3,0.8c-0.6,0-1-0.4-1-1.2v-2.6h-0.5v2.7c0,0.5,0.1,0.9,0.4,1.1c0.2,0.3,0.6,0.4,1,0.4c0.6,0,1-0.2,1.3-0.6
			L373.4,42.9z M369.3,37.3h-0.5v4.8l-3.2-4.8h-0.5v5.6h0.5v-4.8l3.2,4.8h0.5V37.3z"/>
	</g>
</g>
</svg>